<svg width="20" height="20" viewBox="0 0 20 20" fill="none" xmlns="http://www.w3.org/2000/svg">
<path fill-rule="evenodd" clip-rule="evenodd" d="M2.68425 8.98169C2.69925 5.94419 5.17604 3.46669 8.21452 3.45253C8.93291 3.44732 9.64518 3.58497 10.3099 3.85747C10.9746 4.12997 11.5785 4.53189 12.0865 5.03987C12.5945 5.54784 12.9965 6.15172 13.269 6.81641C13.5415 7.4811 13.6792 8.19333 13.6739 8.91169C13.6719 9.38355 13.6094 9.8532 13.4881 10.3092C13.4501 10.4514 13.4505 10.601 13.4891 10.743C13.5278 10.885 13.6033 11.0142 13.7081 11.1175L14.5798 11.9775L12.8922 13.665L11.3872 15.17L11.2155 15.3417L10.3463 14.4717C10.243 14.3682 10.1144 14.2937 9.97319 14.2557C9.83204 14.2177 9.68336 14.2174 9.54208 14.255C9.08611 14.3767 8.61643 14.4394 8.14451 14.4417C7.42598 14.447 6.71355 14.3094 6.04868 14.0369C5.38381 13.7644 4.77975 13.3624 4.27166 12.8544C3.76356 12.3463 3.36156 11.7423 3.08904 11.0774C2.81652 10.4126 2.67892 9.7002 2.68425 8.98169ZM10.1729 16.6492C10.3819 16.818 10.6289 16.9333 10.8925 16.985C11.1561 17.0367 11.4283 17.0233 11.6855 16.9459L13.0981 18.1767L13.3298 18.385C13.6937 18.713 14.1314 18.9482 14.6057 19.0707C15.0801 19.1932 15.577 19.1993 16.0542 19.0885C16.5314 18.9778 16.9748 18.7533 17.3467 18.4344C17.7185 18.1155 18.0078 17.7114 18.19 17.2567C18.4032 16.7256 18.4632 16.1454 18.3631 15.582C18.2631 15.0185 18.0071 14.4944 17.6241 14.0692L17.0141 13.3934L16.1849 12.4459C16.262 12.1889 16.2753 11.917 16.2236 11.6537C16.1719 11.3905 16.0568 11.1438 15.8882 10.935C15.8687 10.9105 15.8478 10.8872 15.8257 10.865L15.209 10.2567C15.294 9.82336 15.339 9.37669 15.3407 8.92003C15.347 7.98146 15.1668 7.051 14.8105 6.18264C14.4543 5.31429 13.9291 4.52535 13.2654 3.86164C12.6017 3.19792 11.8128 2.67264 10.9445 2.3163C10.0761 1.95996 9.14563 1.77966 8.20702 1.78586C4.25432 1.80503 1.0375 5.02169 1.0175 8.97336C1.01107 9.91214 1.19125 10.8428 1.54756 11.7114C1.90387 12.5799 2.42921 13.3691 3.09307 14.0329C3.75693 14.6967 4.54608 15.222 5.41468 15.5783C6.28329 15.9346 7.21403 16.1148 8.15285 16.1084C8.60297 16.1061 9.05189 16.0618 9.49374 15.9759L10.1079 16.59C10.1288 16.6109 10.1508 16.6307 10.1738 16.6492H10.1729ZM15.8732 17.4042C15.5348 17.5385 15.1568 17.5331 14.8223 17.3892L16.4441 15.2542C16.7508 15.6417 16.8291 16.1709 16.6424 16.6359C16.5728 16.8094 16.4686 16.967 16.3363 17.099C16.2039 17.2311 16.0461 17.3349 15.8724 17.4042H15.8732ZM12.9764 15.8959L13.764 16.595L15.534 14.1475L14.8565 13.3725L12.9764 15.8959Z" fill="#1D192B"/>
<path d="M6.30438 6.72417C5.67602 7.2966 5.3854 7.91307 5.35908 8.47814C5.33276 9.04321 5.56599 9.50711 5.78493 9.8217L6.61172 9.24436C6.47293 9.03261 6.36371 8.79392 6.37621 8.52551C6.38871 8.2571 6.48253 7.91461 6.97782 7.46341C7.46572 7.01894 7.83959 6.89477 8.10866 6.89315C8.37773 6.89152 8.58502 7.00028 8.76012 7.19248C9.31908 7.80605 9.22263 8.20505 9.14932 8.86703C9.07602 9.52902 9.01912 10.4466 9.80705 11.3115L9.97541 11.4963L10.7147 10.8229L10.5463 10.6381C9.98733 10.0245 10.0616 9.64571 10.1349 8.98373C10.2082 8.32174 10.2873 7.38395 9.49936 6.51904C9.17611 6.16421 8.68678 5.8795 8.11365 5.87404C7.53314 5.87532 6.92534 6.15848 6.30438 6.72417V6.72417ZM10.6489 12.2356L11.3223 12.9748L12.0615 12.3014L11.3881 11.5621L10.6489 12.2356Z" fill="#1D192B"/>
</svg>
